<svg width="51" height="50" viewBox="0 0 51 50" fill="none" xmlns="http://www.w3.org/2000/svg">
<path d="M36.6842 31.8007L41.4682 32.8234C43.1994 33.1935 42.8008 32.6649 42.1266 31.4531L40.6509 28.8008C40.0348 27.7547 40.0672 27.0854 40.5342 25.9822C41.6774 22.8951 41.2705 19.4202 39.3653 16.6442C37.1596 13.4302 33.3121 11.6874 29.386 12.1236C25.4598 12.5599 22.108 15.1028 20.6919 18.7193C19.6434 22.8322 23.8511 23.9329 25.3737 22.7388C27.0025 21.4614 27.1561 19.1642 25.0506 17.2995" stroke="black" stroke-width="1.5" stroke-linecap="round"/>
<path d="M28.4988 30.4503C26.5305 34.3345 22.3069 36.61 17.9073 36.1566C16.9975 36.0629 16.1198 35.8565 15.2901 35.5509C14.9236 35.4158 13.9992 35.169 13.2746 35.6083" stroke="black" stroke-width="1.5" stroke-linecap="round"/>
<path d="M9.92791 33.038L8.67857 36.3478C8.18993 37.6424 7.94391 38.4154 9.51868 37.6191L13.2906 35.5895" stroke="black" stroke-width="1.5" stroke-linecap="round"/>
<path d="M9.96306 32.9178C10.362 31.8875 10.0317 31.3381 9.87274 31.074C9.38473 30.2565 9.00611 29.3646 8.75734 28.4159C7.65587 24.2153 9.33371 19.7861 12.9648 17.3087C16.5959 14.8312 21.4153 14.8276 25.0503 17.302" stroke="black" stroke-width="1.5" stroke-linecap="round"/>
</svg>
