<svg width="51" height="50" fill="none" version="1.1" viewBox="0 0 51 50" xmlns="http://www.w3.org/2000/svg">
 <path d="m30.869 11.312c-0.51898-0.013038-1.0417 0.008113-1.5664 0.066406-2.8524 0.31698-5.4232 1.6773-7.2559 3.7324-0.99461-0.27088-2.0172-0.41273-3.041-0.41211-2.2605 0.001373-4.5199 0.66451-6.4629 1.9902-3.886 2.6513-5.6934 7.4095-4.5117 11.916 0.26687 1.0177 0.67371 1.9765 1.1973 2.8535l0.0019532 0.001954c0.15869 0.26365 0.34939 0.36896 0.033203 1.1855a0.75 0.75 0 0 0-0.033203 0.11524 0.75 0.75 0 0 0-0.0019532 0.003906 0.75 0.75 0 0 0-0.0019531 0.007813l-1.25 3.3086c-0.12353 0.32727-0.23578 0.63132-0.31641 0.92188-0.080626 0.29056-0.17587 0.55565-0.054687 0.97266 0.060593 0.2085 0.23326 0.46434 0.46875 0.5918 0.23549 0.12746 0.46704 0.13632 0.65625 0.11719 0.37843-0.038255 0.69667-0.17891 1.127-0.39648l0.0078125-0.005859 3.6543-1.9648a0.75 0.75 0 0 0 0.14453-0.068359c0.3763-0.22814 1.1066-0.092164 1.3672 0.003906 0.8879 0.32704 1.8263 0.54828 2.7988 0.64844 4.7028 0.48465 9.2274-1.9485 11.338-6.1133a0.75 0.75 0 0 0-0.33008-1.0078 0.75 0.75 0 0 0-0.35156-0.080078 0.75 0.75 0 0 0-0.65625 0.41016c-1.8261 3.6037-5.7493 5.721-9.8457 5.2988-0.84705-0.087237-1.664-0.27834-2.4355-0.5625-0.44366-0.16354-1.4565-0.47849-2.4668 0.021485a0.75 0.75 0 0 0-0.14648 0.060547l-3.6523 1.9648c0.036668-0.10137 0.054719-0.16749 0.097656-0.28125l1.248-3.3105a0.75 0.75 0 0 0 0.027344-0.099609 0.75 0.75 0 0 0 0.001953-0.001953 0.75 0.75 0 0 0 0.003906-0.011719c0.48105-1.2424 0.015313-2.2339-0.14453-2.5l-0.001953-0.001953c-0.45183-0.75735-0.80276-1.5821-1.0332-2.4609-1.0213-3.8947 0.52814-7.9954 3.9043-10.299 2.2752-1.5523 5.0531-2.0557 7.6582-1.5176-0.41589 0.6337-0.76857 1.3144-1.0508 2.0352l-0.017579 0.042969-0.011718 0.044922c-0.58753 2.3047 0.3689 4.0528 1.7285 4.8359 1.3596 0.78311 3.0292 0.83212 4.1426-0.041016 0.97718-0.76636 1.5538-1.8981 1.5273-3.1055-0.025631-1.1699-0.61682-2.3637-1.7207-3.3828a0.75 0.75 0 0 0-0.017578-0.019532 0.75 0.75 0 0 0-0.058594-0.060546 0.75 0.75 0 0 0-0.019531-0.021485 0.75 0.75 0 0 0-0.005859-0.003906 0.75 0.75 0 0 0-0.050782-0.041016 0.75 0.75 0 0 0-0.005859-0.003906 0.75 0.75 0 0 0-0.011719-0.007812 0.75 0.75 0 0 0-0.064453-0.041016c-0.57758-0.38751-1.1845-0.71115-1.8086-0.98242 1.5473-1.5294 3.6012-2.537 5.8691-2.7891 3.6548-0.40605 7.2303 1.2164 9.2773 4.1992 1.7682 2.5763 2.1434 5.7934 1.084 8.6543l0.013672-0.033203c-0.2523 0.59601-0.42054 1.1509-0.40625 1.7422 0.014258 0.58993 0.21946 1.1593 0.56445 1.7461 8.12e-4 0.001381 0.00114 0.002526 0.001953 0.003907l1.4668 2.6367c0.062683 0.11267 0.093883 0.17202 0.14844 0.26953l-4.7773-1.0215a0.75 0.75 0 0 0-0.89062 0.57812 0.75 0.75 0 0 0 0.57617 0.88867l4.7832 1.0234c0.46274 0.098925 0.79714 0.1565 1.1484 0.12695 0.17565-0.014772 0.37534-0.050636 0.58398-0.19531 0.20864-0.14468 0.36931-0.4271 0.40039-0.6543 0.062168-0.45439-0.094071-0.67958-0.21875-0.93359-0.12468-0.25401-0.27881-0.51674-0.44336-0.8125l-1.4785-2.6602-0.005859-0.007812c-0.26964-0.45783-0.35454-0.74473-0.36133-1.0254-0.006783-0.28066 0.07436-0.61195 0.28906-1.1191l0.007813-0.017579 0.005859-0.015624c1.227-3.3133 0.78834-7.0458-1.2539-10.021-2.0688-3.0146-5.4824-4.8169-9.1152-4.9082zm-8.2832 5.5449c0.6947 0.26524 1.3654 0.61135 1.998 1.0371 0.90434 0.8145 1.2636 1.6442 1.2793 2.3613 0.015922 0.72672-0.3015 1.3815-0.95312 1.8926-0.40926 0.32096-1.604 0.41686-2.4668-0.080079-0.85464-0.49226-1.4619-1.3515-1.0254-3.125 0.29968-0.75213 0.70181-1.4452 1.168-2.0859z" style="color-rendering:auto;color:#000000;dominant-baseline:auto;fill:#000;font-feature-settings:normal;font-variant-alternates:normal;font-variant-caps:normal;font-variant-east-asian:normal;font-variant-ligatures:normal;font-variant-numeric:normal;font-variant-position:normal;font-variation-settings:normal;image-rendering:auto;inline-size:0;isolation:auto;mix-blend-mode:normal;shape-margin:0;shape-padding:0;shape-rendering:auto;solid-color:#000000;stop-color:#000000;text-decoration-color:#000000;text-decoration-line:none;text-decoration-style:solid;text-indent:0;text-orientation:mixed;text-transform:none;white-space:normal"/>
</svg>
