<svg width="50" height="50" fill="none" version="1.1" viewBox="0 0 50 50" xmlns="http://www.w3.org/2000/svg">
 <path d="m11.182 7.4512c-0.153-0.0041734-0.30622 0.0017839-0.45898 0.017578-0.61106 0.063177-1.2105 0.28631-1.7324 0.67188-1.0439 0.77113-1.7023 2.2051-1.5098 4.0605 0.19012 1.8325 1.1681 4.1044 3.2715 6.877-0.058027 0.13887-0.13372 0.27395-0.1875 0.41797-1.3311 3.5642-3.0039 6.3686-3.0039 13.365v0.025391l0.0019531 0.027343c0.092366 1.2839 0.24042 3.744 1.3379 5.9238 1.0975 2.1798 3.3105 4.0571 7.0254 3.8945l-0.033203 0.001953h9.1172 0.13476 9.1289l-0.033204-0.001953c3.7149 0.16255 5.9279-1.7147 7.0254-3.8945s1.2456-4.64 1.3379-5.9238l0.001953-0.027343v-0.025391c0-6.9966-1.6728-9.801-3.0039-13.365-0.053781-0.14402-0.12947-0.2791-0.1875-0.41797 2.1034-2.7725 3.0814-5.0445 3.2715-6.877 0.1925-1.8554-0.4639-3.2894-1.5078-4.0605-0.52196-0.38557-1.1233-0.6087-1.7344-0.67188s-1.2327 0.033512-1.7949 0.28906c-1.1244 0.5111-1.9752 1.7253-1.9531 3.3262 0.053711 3.8972 1.073 5.8642 1.8848 7.5488-0.79102 0.58711-2.2222 1.2253-4.2949 1.6387-2.3602 0.47073-5.2755 0.72105-8.2031 0.75-2.927-0.029049-5.8416-0.27937-8.2012-0.75-2.0721-0.41327-3.5017-1.0517-4.293-1.6387 0.81172-1.6846 1.8291-3.6516 1.8828-7.5488 0.022054-1.6009-0.82874-2.8151-1.9531-3.3262-0.42164-0.19166-0.87695-0.29412-1.3359-0.30664zm-0.30078 1.5117c0.35258-0.035991 0.70826 0.017601 1.0176 0.1582 0.61863 0.2812 1.0894 0.84024 1.0742 1.9434-0.043834 3.1806-0.75817 4.8477-1.4883 6.373-1.5702-2.2474-2.3803-4.1067-2.5137-5.3926-0.15085-1.454 0.31114-2.2582 0.9082-2.6992 0.29853-0.22052 0.64937-0.34682 1.002-0.38281zm28.404 0c0.35258 0.035991 0.70342 0.16229 1.002 0.38281 0.59706 0.44104 1.0591 1.2452 0.9082 2.6992-0.13341 1.2859-0.94349 3.1452-2.5137 5.3926-0.73011-1.5254-1.4444-3.1944-1.4883-6.375-0.015196-1.1031 0.45755-1.6602 1.0762-1.9414 0.30931-0.1406 0.66305-0.19419 1.0156-0.1582zm-27.303 11.027c1.1501 0.77754 2.639 1.3578 4.6055 1.75 2.2859 0.45593 4.9964 0.70196 7.752 0.76367a0.74914 0.74914 0 0 0 0.19336 0.027344c0.18345 0 0.3654-0.009978 0.54883-0.011719 0.18408 0.001753 0.36668 0.011719 0.55078 0.011719a0.74914 0.74914 0 0 0 0.19531-0.027344c2.7549-0.061795 5.4646-0.30785 7.75-0.76367 1.9668-0.39228 3.4573-0.9722 4.6074-1.75 0.00344 0.009107 0.010273 0.022148 0.013672 0.03125 1.3824 3.7016 2.9018 6.0726 2.9062 12.814-0.093212 1.2936-0.26958 3.5243-1.1777 5.3281-0.91356 1.8146-2.3998 3.2132-5.6211 3.0723h-0.017579-9.1348-0.009766-0.12109-9.1465-0.015625c-3.2213 0.14095-4.7075-1.2577-5.6211-3.0723-0.90816-1.8038-1.0845-4.0345-1.1777-5.3281 0.0044524-6.7419 1.5238-9.1129 2.9062-12.814 0.003399-0.009102 0.010232-0.022143 0.013672-0.03125z" style="color-rendering:auto;color:#000000;dominant-baseline:auto;fill:#000;font-feature-settings:normal;font-variant-alternates:normal;font-variant-caps:normal;font-variant-east-asian:normal;font-variant-ligatures:normal;font-variant-numeric:normal;font-variant-position:normal;font-variation-settings:normal;image-rendering:auto;inline-size:0;isolation:auto;mix-blend-mode:normal;shape-margin:0;shape-padding:0;shape-rendering:auto;solid-color:#000000;stop-color:#000000;text-decoration-color:#000000;text-decoration-line:none;text-decoration-style:solid;text-indent:0;text-orientation:mixed;text-transform:none;white-space:normal"/>
</svg>
