<svg width="50" height="50" viewBox="0 0 50 50" fill="none" xmlns="http://www.w3.org/2000/svg">
<path d="M25.6336 21.7816C19.3292 21.7816 12.9499 20.7351 11.4058 18.718C2.98588 7.719 13.797 5.66581 13.7225 11.0738C13.6571 15.8192 12.0667 17.6155 11.2664 19.7585C9.90861 23.3941 8.31065 25.9801 8.31065 32.8607C8.49582 35.4345 8.95721 42.2881 15.8934 41.9846H25.1438" stroke="black" stroke-width="1.49828" stroke-linecap="round"/>
<path d="M24.533 21.7816C30.8373 21.7816 37.2167 20.7351 38.7608 18.718C47.1807 7.719 36.3696 5.66581 36.4441 11.0738C36.5095 15.8192 38.0999 17.6155 38.9002 19.7585C40.258 23.3941 41.8559 25.9801 41.8559 32.8607C41.6708 35.4345 41.2094 42.2881 34.2732 41.9846H25.0228" stroke="black" stroke-width="1.49828" stroke-linecap="round"/>
</svg>
