<svg width="51" height="51" viewBox="0 0 51 51" fill="none" xmlns="http://www.w3.org/2000/svg">
<path d="M25.9308 13.5242C23.0217 13.8751 22.0929 11.8925 22.0775 10.4187C22.0751 10.0677 21.4331 10.1308 21.0808 10.0337C16.8806 10.0337 13.3447 10.38 9.35321 12.456C8.00179 13.0722 8.32587 13.9523 8.40601 14.5533L9.0245 18.7236C9.24634 20.2097 10.2048 19.7706 11.2577 19.5578L13.8555 19.0348C15.186 18.7041 14.9004 20.5166 14.9489 20.9593V38.1029C14.8609 40.192 15.6455 40.9661 17.1911 40.9661H35.8912" stroke="black" stroke-width="1.5" stroke-linecap="round"/>
<path d="M36.0511 36.5867V20.9593C36.0998 20.5166 35.814 18.7041 37.1445 19.0348L39.7423 19.5578C40.7952 19.7707 41.754 20.2097 41.9755 18.7236L42.594 14.5533C42.6739 13.9523 42.9982 13.0722 41.6468 12.456C37.6553 10.38 34.1194 10.0337 29.9192 10.0337C29.5669 10.1308 28.9257 10.0674 28.9225 10.4187C28.9072 11.8925 27.9783 13.8751 25.0693 13.5242" stroke="black" stroke-width="1.5" stroke-linecap="round"/>
</svg>
