<svg width="30" height="27" viewBox="0 0 30 27" fill="none" xmlns="http://www.w3.org/2000/svg">
<path d="M15.1624 3.80607C12.8238 4.08816 12.0771 2.49433 12.0647 1.30951C12.0628 1.02727 11.5467 1.07801 11.2635 1C7.88682 1 5.04422 1.27833 1.83537 2.94732C0.748938 3.44269 1.00948 4.15025 1.0739 4.63334L1.57112 7.98594C1.74946 9.18064 2.52001 8.82769 3.36644 8.65659L5.45483 8.2361C6.52446 7.97026 6.29484 9.42741 6.33388 9.78332V23.5654C6.2631 25.2448 6.89387 25.8672 8.13643 25.8672H23.1698" stroke="#797979" stroke-width="2" stroke-linecap="round"/>
<path d="M23.2983 22.3465V9.78332C23.3375 9.42741 23.1078 7.9703 24.1774 8.2361L26.2658 8.65659C27.1122 8.82772 27.8831 9.18064 28.0611 7.98594L28.5583 4.63334C28.6226 4.15025 28.8833 3.44269 27.7969 2.94732C24.588 1.27833 21.7454 1 18.3688 1C18.0856 1.07804 17.5701 1.02707 17.5675 1.30951C17.5552 2.49433 16.8085 4.08816 14.4698 3.80607" stroke="#797979" stroke-width="2" stroke-linecap="round"/>
</svg>
