<svg width="50" height="51" viewBox="0 0 50 51" fill="none" xmlns="http://www.w3.org/2000/svg">
<path d="M12.0014 19.0569V27.7212C12.1568 29.9294 12.5452 35.8089 18.3789 35.5486H32.7197C38.7776 35.5486 40.2081 33.1658 40.2081 28.7054V25.175C40.2081 18.6954 36.3502 17.4387 27.3966 16.9973C18.4429 16.556 11.1266 14.7634 9.81363 8.24887" stroke="black" stroke-width="1.50083" stroke-linecap="round"/>
<path d="M20.1701 42.7887C22.1174 42.7887 23.6959 41.1786 23.6959 39.1923C23.6959 37.2061 22.1174 35.596 20.1701 35.596C18.2228 35.596 16.6443 37.2061 16.6443 39.1923C16.6443 41.1786 18.2228 42.7887 20.1701 42.7887Z" stroke="black" stroke-width="1.50083" stroke-linecap="round"/>
<path d="M32.9024 42.7887C34.8497 42.7887 36.4283 41.1786 36.4283 39.1923C36.4283 37.2061 34.8497 35.596 32.9024 35.596C30.9552 35.596 29.3766 37.2061 29.3766 39.1923C29.3766 41.1786 30.9552 42.7887 32.9024 42.7887Z" stroke="black" stroke-width="1.50083" stroke-linecap="round"/>
</svg>
