<svg width="51" height="51" fill="none" version="1.1" viewBox="0 0 51 51" xmlns="http://www.w3.org/2000/svg">
 <path d="m12.238 14.541c-0.83256 0-1.9742-0.015309-2.9805 0.6543-1.0062 0.66961-1.668 2.0012-1.668 4.125v12.717c0 1.7897 0.82863 3.0109 1.8164 3.6484 0.98778 0.63754 2.0591 0.76953 2.748 0.76953h25.732c2.9101 0.108 5.5234-1.9996 5.5234-4.9219v-13.01a0.74908 0.74908 0 0 0-0.74805-0.74805 0.74908 0.74908 0 0 0-0.75 0.74805v13.01c0 2.0344-1.7934 3.5046-3.9707 3.4238h-0.013672-25.773c-0.46973 0-1.3054-0.12261-1.9355-0.5293-0.63011-0.40669-1.1309-1.0208-1.1309-2.3906v-12.717c0-1.8395 0.46725-2.5224 1-2.877 0.53275-0.35452 1.338-0.4043 2.1504-0.4043h24.412a0.74908 0.74908 0 0 0 0.74805-0.74805 0.74908 0.74908 0 0 0-0.74805-0.75h-24.412zm2.5957 13.869a0.74908 0.74908 0 0 0-0.74805 0.75 0.74908 0.74908 0 0 0 0.74805 0.74805h20.846a0.74908 0.74908 0 0 0 0.74805-0.74805 0.74908 0.74908 0 0 0-0.74805-0.75h-20.846z" style="color-rendering:auto;color:#000000;dominant-baseline:auto;fill:#000;font-feature-settings:normal;font-variant-alternates:normal;font-variant-caps:normal;font-variant-east-asian:normal;font-variant-ligatures:normal;font-variant-numeric:normal;font-variant-position:normal;font-variation-settings:normal;image-rendering:auto;inline-size:0;isolation:auto;mix-blend-mode:normal;shape-margin:0;shape-padding:0;shape-rendering:auto;solid-color:#000000;stop-color:#000000;text-decoration-color:#000000;text-decoration-line:none;text-decoration-style:solid;text-indent:0;text-orientation:mixed;text-transform:none;white-space:normal"/>
</svg>
