<svg width="50" height="51" viewBox="0 0 50 51" fill="none" xmlns="http://www.w3.org/2000/svg">
<path d="M20.1895 42.6018V33.198C20.1895 31.6359 20.897 29.8116 23.1599 29.8116H27.5284C29.0689 29.8116 30.6736 30.6114 30.6736 33.0198V38.5004C30.6736 40.7198 30.563 42.7464 33.6441 42.5551H38.1872C39.6921 42.5551 41.5914 41.6327 41.3325 38.4112V24.4647C41.2114 21.8388 40.9311 20.8091 39.2356 19.1178L28.8389 10.2775C26.9983 8.4002 24.9371 6.81277 21.5 10.456L11.1906 19.2072C9.66591 20.7624 8.72339 22.515 8.65686 25.3561V38.5906C8.5463 41.2799 9.32318 42.7336 11.8301 42.7336H14.4232" stroke="black" stroke-width="1.49845" stroke-linecap="round"/>
</svg>
