<svg width="50" height="51" fill="none" version="1.1" viewBox="0 0 50 51" xmlns="http://www.w3.org/2000/svg">
 <path d="m25.879 7.5547c-1.471-0.22049-3.1167 0.47122-4.9238 2.3867l0.060547-0.056641-10.336 8.7734-0.023438 0.025391c-1.6136 1.6459-2.6778 3.6548-2.748 6.6543v0.009765 13.213c-0.058466 1.4221 0.093309 2.6236 0.74219 3.543 0.64888 0.91936 1.7814 1.3789 3.1797 1.3789h2.5938a0.74923 0.74923 0 0 0 0.74805-0.74805 0.74923 0.74923 0 0 0-0.74805-0.75h-2.5938c-1.1086 0-1.6164-0.26628-1.9551-0.74609-0.33865-0.47982-0.52084-1.35-0.46875-2.6172v-0.015625-13.232c0.062699-2.6775 0.88391-4.1691 2.3145-5.6309l10.295-8.7422 0.029297-0.029297c1.63-1.7277 2.7323-2.0653 3.6113-1.9336 0.87899 0.13175 1.7521 0.85142 2.6484 1.7656l0.023437 0.023438 10.387 8.834c1.6045 1.6034 1.7504 2.2652 1.8691 4.8398v13.941l0.001954 0.029297c0.11727 1.4592-0.2384 2.2325-0.69531 2.6914s-1.1037 0.64453-1.7031 0.64453h-4.5664-0.023438c-0.68889 0.042772-1.1321-0.046413-1.4004-0.17188-0.26829-0.12546-0.3972-0.26967-0.51562-0.52148-0.23685-0.50363-0.25977-1.4911-0.25977-2.6133v-5.4805c0-1.3706-0.49195-2.4322-1.2598-3.0801s-1.7329-0.87695-2.6328-0.87695h-4.3691c-1.3328 0-2.3614 0.59657-2.9453 1.4238-0.58391 0.82726-0.77539 1.8168-0.77539 2.7109v9.4043a0.74923 0.74923 0 0 0 0.75 0.75 0.74923 0.74923 0 0 0 0.75-0.75v-9.4043c0-0.66794 0.16248-1.3703 0.49805-1.8457 0.33557-0.47542 0.79254-0.79102 1.7227-0.79102h4.3691c0.64059 0 1.2464 0.17128 1.666 0.52539 0.41966 0.35411 0.72852 0.89579 0.72852 1.9336v5.4805c0 1.0973-0.075785 2.2333 0.40234 3.25 0.23906 0.50835 0.65879 0.97211 1.2363 1.2422 0.57753 0.27008 1.2772 0.36342 2.1289 0.31055l-0.046875 0.001954h4.543c0.90552 0 1.9614-0.27629 2.7656-1.084s1.2686-2.1069 1.127-3.8691l0.001953 0.060547v-13.965l-0.001953-0.017578c-0.12314-2.67-0.54054-4.0723-2.3145-5.8418l-0.021484-0.021485-10.42-8.8594 0.048828 0.046875c-0.94427-0.9631-2.0231-1.9787-3.4941-2.1992z" style="color-rendering:auto;color:#000000;dominant-baseline:auto;fill:#000;font-feature-settings:normal;font-variant-alternates:normal;font-variant-caps:normal;font-variant-east-asian:normal;font-variant-ligatures:normal;font-variant-numeric:normal;font-variant-position:normal;font-variation-settings:normal;image-rendering:auto;inline-size:0;isolation:auto;mix-blend-mode:normal;shape-margin:0;shape-padding:0;shape-rendering:auto;solid-color:#000000;stop-color:#000000;text-decoration-color:#000000;text-decoration-line:none;text-decoration-style:solid;text-indent:0;text-orientation:mixed;text-transform:none;white-space:normal"/>
</svg>
