<svg width="51" height="51" fill="none" version="1.1" viewBox="0 0 51 51" xmlns="http://www.w3.org/2000/svg">
 <path d="m18.943 7.6094c-1.7946 0-3.0189 0.83182-3.6582 1.8223-0.63925 0.99041-0.77148 2.063-0.77148 2.7539v25.811c-0.10855 2.9182 2.0053 5.5391 4.9355 5.5391h13.881a0.75 0.75 0 0 0 0.75-0.75 0.75 0.75 0 0 0-0.75-0.75h-13.881c-2.0412 0-3.5168-1.7982-3.4355-3.9824v-0.015625-25.852c0-0.47133 0.12313-1.3091 0.53125-1.9414 0.40812-0.63231 1.0242-1.1348 2.3984-1.1348h12.754c1.8453 0 2.5309 0.46916 2.8867 1.0039 0.35586 0.53476 0.40625 1.3434 0.40625 2.1582v24.484a0.75 0.75 0 0 0 0.75 0.75 0.75 0.75 0 0 0 0.75-0.75v-24.484c0-0.83507 0.015093-1.9814-0.65625-2.9902-0.67134-1.0088-2.0068-1.6719-4.1367-1.6719h-12.754zm5.377 28.395a0.75 0.75 0 0 0-0.75 0.75 0.75 0.75 0 0 0 0.75 0.75h3.4219a0.75 0.75 0 0 0 0.75-0.75 0.75 0.75 0 0 0-0.75-0.75h-3.4219z" style="color-rendering:auto;color:#000000;dominant-baseline:auto;fill:#000;font-feature-settings:normal;font-variant-alternates:normal;font-variant-caps:normal;font-variant-east-asian:normal;font-variant-ligatures:normal;font-variant-numeric:normal;font-variant-position:normal;font-variation-settings:normal;image-rendering:auto;inline-size:0;isolation:auto;mix-blend-mode:normal;shape-margin:0;shape-padding:0;shape-rendering:auto;solid-color:#000000;stop-color:#000000;text-decoration-color:#000000;text-decoration-line:none;text-decoration-style:solid;text-indent:0;text-orientation:mixed;text-transform:none;white-space:normal"/>
</svg>
