<svg width="36" height="35" viewBox="0 0 36 35" fill="none" xmlns="http://www.w3.org/2000/svg">
<path d="M11.047 6.51709C1.37949 12.0821 11.4049 25.5932 17.9754 29.2813" stroke="#BE5599" stroke-width="1.3" stroke-linecap="round"/>
<path d="M21.3277 12.9688C21.2472 13.7982 20.8436 14.5663 20.1995 15.1157C19.5554 15.6651 18.7196 15.9543 17.8634 15.924C17.0071 15.8937 16.1951 15.5462 15.5938 14.9527C14.9925 14.3592 14.6474 13.5646 14.6292 12.7318" stroke="#BE5599" stroke-width="1.3" stroke-linecap="round"/>
<path d="M21.3382 12.8118C21.6128 6.89421 14.8705 4.37374 11.209 6.42897" stroke="#BE5599" stroke-width="1.3" stroke-linecap="round"/>
<path d="M14.6266 12.7045C14.3168 7.08827 21.352 4.73227 24.8126 6.42888" stroke="#BE5599" stroke-width="1.3" stroke-linecap="round"/>
<path d="M24.999 6.51709C33.3355 11.3159 27.2572 25.3705 18.3867 29.3874" stroke="#BE5599" stroke-width="1.3" stroke-linecap="round"/>
</svg>
