<svg width="51" height="50" viewBox="0 0 51 50" fill="none" xmlns="http://www.w3.org/2000/svg">
<path d="M15.6502 9.31007C1.95461 17.2601 16.1573 36.5616 25.4654 41.8303" stroke="black" stroke-width="1.5" stroke-linecap="round"/>
<path d="M30.2149 18.5267C30.1009 19.7116 29.5291 20.8088 28.6166 21.5937C27.7042 22.3785 26.5201 22.7916 25.307 22.7484C24.094 22.7051 22.9437 22.2087 22.0918 21.3608C21.24 20.513 20.7511 19.3779 20.7253 18.1881" stroke="black" stroke-width="1.5" stroke-linecap="round"/>
<path d="M30.2291 18.3025C30.6182 9.84869 21.0665 6.24803 15.8794 9.18406" stroke="black" stroke-width="1.5" stroke-linecap="round"/>
<path d="M20.7217 18.1492C20.2828 10.126 30.2493 6.7603 35.1518 9.18403" stroke="black" stroke-width="1.5" stroke-linecap="round"/>
<path d="M35.4157 9.31007C47.2258 16.1655 38.6149 36.2435 26.0484 41.982" stroke="black" stroke-width="1.5" stroke-linecap="round"/>
</svg>
