<svg width="50" height="50" viewBox="0 0 50 50" fill="none" xmlns="http://www.w3.org/2000/svg">
<path d="M19.3644 35.8922H38.6426C40.9322 35.8922 41.9093 34.8285 41.9093 33.0815C41.9093 31.8947 41.1608 30.6936 39.6981 29.9718C33.5362 26.9589 29.2238 24.3003 23.6059 20.9034" stroke="black" stroke-width="1.5" stroke-linecap="round"/>
<path d="M23.6059 20.9034C22.8715 20.4932 22.3024 19.8406 21.996 19.0572C21.6897 18.2737 21.665 17.4082 21.9263 16.6087C22.1876 15.8091 22.7187 15.1251 23.4286 14.6739C24.1384 14.2226 24.9831 14.032 25.818 14.1347C26.6529 14.2374 27.4262 14.627 28.0055 15.2369C28.5849 15.8467 28.9343 16.639 28.9941 17.4781" stroke="black" stroke-width="1.5" stroke-linecap="round"/>
<path d="M31.1666 35.8922H11.4658C9.17622 35.8922 8.19904 34.8285 8.19904 33.0815C8.19904 31.8947 8.9476 30.6936 10.4103 29.9718C14.2712 28.084 16.5554 26.3352 20.4383 24.4568" stroke="black" stroke-width="1.5" stroke-linecap="round"/>
</svg>
