<svg width="37" height="37" viewBox="0 0 37 37" fill="none" xmlns="http://www.w3.org/2000/svg">
<path d="M14.3296 26.5601H28.5955C30.2897 26.5601 31.0129 25.773 31.0129 24.4802C31.0129 23.602 30.4589 22.7132 29.3765 22.179C24.8167 19.9495 21.6256 17.9822 17.4683 15.4684" stroke="#202020" stroke-width="1.5" stroke-linecap="round"/>
<path d="M17.4685 15.4685C16.925 15.1649 16.5039 14.682 16.2772 14.1023C16.0505 13.5225 16.0322 12.8821 16.2256 12.2904C16.419 11.6987 16.8119 11.1926 17.3373 10.8586C17.8626 10.5247 18.4876 10.3837 19.1054 10.4597C19.7233 10.5357 20.2955 10.8239 20.7242 11.2753C21.1529 11.7266 21.4115 12.3128 21.4557 12.9337" stroke="#202020" stroke-width="1.5" stroke-linecap="round"/>
<path d="M23.0633 26.5603H8.48476C6.7905 26.5603 6.06738 25.7731 6.06738 24.4803C6.06738 23.6021 6.62132 22.7133 7.70371 22.1791C10.5608 20.7821 12.2511 19.4881 15.1244 18.098" stroke="#202020" stroke-width="1.5" stroke-linecap="round"/>
</svg>
