<svg width="16" height="17" viewBox="0 0 16 17" fill="none" xmlns="http://www.w3.org/2000/svg">
<path fill-rule="evenodd" clip-rule="evenodd" d="M0.740453 15.4812C0.331512 15.11 0.300913 14.4776 0.672108 14.0686L12.7701 0.740479C13.1413 0.331539 13.7737 0.30094 14.1826 0.672135C14.5916 1.04333 14.6222 1.67576 14.251 2.0847L2.15301 15.4128C1.78182 15.8218 1.14939 15.8524 0.740453 15.4812Z" fill="#EA5254"/>
<path fill-rule="evenodd" clip-rule="evenodd" d="M1.2218 0.813676C1.63075 0.4425 2.26318 0.473127 2.63435 0.882085L14.7317 14.2108C15.1029 14.6197 15.0722 15.2522 14.6633 15.6233C14.2543 15.9945 13.6219 15.9639 13.2507 15.5549L1.15339 2.22623C0.782211 1.81728 0.812839 1.18485 1.2218 0.813676Z" fill="#EA5254"/>
</svg>
