<svg width="50" height="50" viewBox="0 0 50 50" fill="none" xmlns="http://www.w3.org/2000/svg">
<path d="M32.6877 18.3691C29.2628 18.6847 27.4045 11.0154 26.4483 9.47979C25.8025 7.97561 24.4209 7.31914 23.2918 9.83822L19.9144 16.648C19.4693 17.6662 18.814 18.3824 17.6602 18.3824H10.9573C7.58455 18.3824 7.73805 20.3035 8.9445 21.3856L14.3287 27.0165C15.0121 27.6999 16.1376 28.4843 15.5444 30.5848L13.3797 38.6632C12.1938 42.2341 13.2265 42.3265 15.8481 40.7693L22.9563 36.6654C24.9674 35.5043 25.2967 35.6113 27.1509 36.6822" stroke="black" stroke-width="1.48952" stroke-linecap="round"/>
<path d="M32.4541 18.3825H39.3711C42.4593 18.3825 42.2694 20.5164 40.6624 22.094L35.648 27.0166C34.9647 27.6999 33.8391 28.4843 34.4323 30.5849L36.597 38.6633C37.783 42.2341 36.7501 42.3265 34.1287 40.7693L27.1074 36.6654" stroke="black" stroke-width="1.48952" stroke-linecap="round"/>
</svg>
