<svg width="51" height="50" viewBox="0 0 51 50" fill="none" xmlns="http://www.w3.org/2000/svg">
<path d="M36.9056 33.0646L40.7974 30.0722C41.7982 29.3026 42.4936 27.9249 41.0068 26.0667L28.5309 10.4714C27.4189 9.08133 26.2151 8.57861 23.9948 8.31548L14.3544 8.08197C11.6266 8.09197 11.0427 9.35454 10.6066 11.7671L9.28794 21.4145L9.14038 22.4919" stroke="black" stroke-width="1.5" stroke-linecap="round"/>
<path d="M14.7019 17.8548C14.5547 17.0486 14.6737 16.2173 15.0415 15.482C15.4093 14.7466 16.0068 14.1455 16.7471 13.7659C17.4873 13.3864 18.3318 13.2482 19.1577 13.3716C19.9835 13.4949 20.7477 13.8734 21.3391 14.4518C21.9306 15.0303 22.3183 15.7786 22.4461 16.588C22.5738 17.3974 22.4349 18.2256 22.0495 18.9523C21.6641 19.6789 21.0523 20.2661 20.3031 20.6284C19.5539 20.9907 18.7063 21.1093 17.8836 20.9668" stroke="black" stroke-width="1.5" stroke-linecap="round"/>
<path d="M37.3031 32.7589L26.1904 41.3036C25.1896 42.0731 23.6592 42.4069 22.1726 40.5487L11.5756 27.3018" stroke="black" stroke-width="1.5" stroke-linecap="round"/>
</svg>
