<svg width="27" height="24" viewBox="0 0 27 24" fill="none" xmlns="http://www.w3.org/2000/svg">
<path d="M1 4.20178V18.3538C1.13724 20.2625 1.42839 22.6661 4.60089 22.5273H22.4305C25.231 22.5273 25.8701 20.7269 25.8701 19.3602V4.50573C25.8701 0.768573 22.3928 1.01572 22.3928 1.01572H5.10393C4.4104 1.04512 1.00462 0.477966 1.00462 4.15065" stroke="#202020" stroke-width="1.49621" stroke-linecap="round"/>
<path d="M10.9131 11.825V22.3221" stroke="#202020" stroke-width="1.49621" stroke-linecap="round"/>
<path d="M24.8454 10.1576H12.2617" stroke="#202020" stroke-width="1.49621" stroke-linecap="round"/>
<path d="M6.36437 14.1268C14.6782 9.45753 9.39533 3.70352 6.89743 4.32731C6.37976 4.4565 5.47471 5.29761 5.97704 6.44396C9.76845 15.0965 17.5188 6.97836 14.7636 4.80824C12.0083 2.63808 7.65769 11.2219 14.7093 13.8116" stroke="#202020" stroke-width="1.49621" stroke-linecap="round"/>
<path d="M9.39312 10.1576H1.68359" stroke="#202020" stroke-width="1.49621" stroke-linecap="round"/>
<path d="M10.9131 1.58398V5.93659" stroke="#202020" stroke-width="1.49621" stroke-linecap="round"/>
</svg>
