<svg width="27" height="24" fill="none" version="1.1" viewBox="0 0 27 24" xmlns="http://www.w3.org/2000/svg">
 <path d="m4.1562 0.25391c-0.46083 0.0092309-1.0252 0.058008-1.6035 0.25586-0.57828 0.19785-1.1808 0.56152-1.6152 1.1719-0.38255 0.5374-0.54834 1.3077-0.59961 2.1738a0.7481 0.7481 0 0 0-0.085938 0.3457v14.18l0.0019531 0.027344c0.069723 0.96969 0.1557 2.1542 0.76367 3.1816 0.60797 1.0274 1.8396 1.7632 3.6152 1.6855h17.797c1.5606 0 2.6905-0.541 3.3496-1.3438s0.83984-1.7723 0.83984-2.5723v-14.854c0-2.1006-1.103-3.3258-2.1719-3.8242-1.0688-0.49839-2.1074-0.41211-2.1074-0.41211l0.052734-0.0019531h-17.305-0.015625c-0.045806 0.0019418-0.45519-0.022903-0.91602-0.013672zm0.029297 1.4961c0.36054-0.007222 0.62838 0.02313 0.91797 0.013672h5.0605v3.1445c-0.94299-1.0437-2.2332-1.6098-3.4473-1.3066-0.52953 0.13215-0.96498 0.46882-1.2988 1.0098-0.33385 0.54094-0.4714 1.3468-0.12695 2.1328 0.48842 1.1146 1.0567 1.9947 1.6797 2.666h-5.2227v-5.1758a0.7481 0.7481 0 0 0 0.0039062-0.083984c0-0.80255 0.17852-1.2844 0.4043-1.6016s0.521-0.50188 0.88086-0.625c0.35986-0.12312 0.77563-0.16636 1.1484-0.17383zm18.26 0.011719s0.69933-0.036935 1.3691 0.27539 1.3066 0.8322 1.3066 2.4688v4.957a0.7481 0.7481 0 0 0-0.27539-0.052734h-10.457c0.60006-0.57145 1.0879-1.2261 1.3848-1.9199 0.2369-0.55365 0.3651-1.1325 0.30273-1.7129-0.062361-0.58036-0.34919-1.1625-0.84961-1.5566-0.47616-0.37504-1.0615-0.54782-1.6113-0.5-0.54983 0.047818-1.0473 0.28858-1.4766 0.62695-0.17231 0.13581-0.32799 0.29664-0.47656 0.4668v-3.0508h10.758l0.02539-0.0019531zm-15.367 3.291c0.82778-0.20672 3.6614 1.7414 2.8594 4.416-0.11426-0.024349-0.22797 0.004703-0.3418-0.029297a0.7481 0.7481 0 0 0-0.03125-0.0097656c-0.96954-0.34272-2.0147-1.2595-2.9023-3.2852-0.15788-0.36029-0.09321-0.54955 0.029297-0.74805 0.12251-0.1985 0.39858-0.34671 0.38672-0.34375zm6.668 0.1582c0.18793-0.016344 0.34203 0.018048 0.55469 0.18555 0.18838 0.14838 0.26077 0.29389 0.28711 0.53906s-0.02797 0.5894-0.18945 0.9668c-0.32297 0.7548-1.0611 1.6125-1.9531 2.1387-0.24331 0.14351-0.50736 0.19356-0.76367 0.28516-0.054265-0.54945-0.026691-1.0993 0.10352-1.6191 0.23965-0.95685 0.76761-1.7803 1.2793-2.1836 0.25584-0.20165 0.49371-0.29616 0.68164-0.3125zm11.375 5.6406v8.5078c0 0.56674-0.13749 1.1839-0.49805 1.623s-0.95342 0.79688-2.1934 0.79688h-10.768v-9.0312c0.68065 0.71735 1.6039 1.3304 2.7891 1.7656a0.7481 0.7481 0 0 0 0.96094-0.44336 0.7481 0.7481 0 0 0-0.44531-0.96094c-1.4873-0.54619-2.3144-1.3406-2.793-2.207a0.7481 0.7481 0 0 0 0.087891 0.003906h12.584a0.7481 0.7481 0 0 0 0.27539-0.054688zm-23.373 0.054688h7.3867c-0.64507 0.82926-1.5697 1.6883-3.1367 2.5684a0.7481 0.7481 0 0 0-0.28516 1.0176 0.7481 0.7481 0 0 0 1.0176 0.28711c1.6085-0.90336 2.6836-1.8914 3.4336-2.8926v9.8926h-5.5801-0.015625c-1.3969 0.061114-1.8967-0.3343-2.2617-0.95117-0.36363-0.6145-0.49088-1.5819-0.55859-2.5176v-7.4043z" color="#000000" color-rendering="auto" dominant-baseline="auto" fill="#202020" image-rendering="auto" shape-rendering="auto" solid-color="#000000" stop-color="#000000" style="font-feature-settings:normal;font-variant-alternates:normal;font-variant-caps:normal;font-variant-east-asian:normal;font-variant-ligatures:normal;font-variant-numeric:normal;font-variant-position:normal;font-variation-settings:normal;inline-size:0;isolation:auto;mix-blend-mode:normal;shape-margin:0;shape-padding:0;text-decoration-color:#000000;text-decoration-line:none;text-decoration-style:solid;text-indent:0;text-orientation:mixed;text-transform:none;white-space:normal"/>
</svg>
