<svg width="51" height="50" viewBox="0 0 51 50" fill="none" xmlns="http://www.w3.org/2000/svg">
<path d="M8.3598 14.7784V33.9027C8.54897 36.4821 8.95029 39.7302 13.3232 39.5426H37.8992C41.7593 39.5426 42.6402 37.1095 42.6402 35.2627V15.1891C42.6402 10.1389 37.8471 10.4729 37.8471 10.4729H14.0166C13.0606 10.5126 8.36617 9.74618 8.36617 14.7093" stroke="black" stroke-width="1.49621" stroke-linecap="round"/>
<path d="M22.0242 25.0799V39.2652" stroke="black" stroke-width="1.49621" stroke-linecap="round"/>
<path d="M41.2277 22.8267H23.8826" stroke="black" stroke-width="1.49621" stroke-linecap="round"/>
<path d="M15.7538 28.1906C27.2134 21.8808 19.9316 14.1051 16.4885 14.9481C15.775 15.1226 14.5275 16.2593 15.2199 17.8084C20.4459 29.501 31.1288 18.5306 27.331 15.598C23.5333 12.6653 17.5365 24.2651 27.2563 27.7647" stroke="black" stroke-width="1.49621" stroke-linecap="round"/>
<path d="M19.9286 22.8267H9.302" stroke="black" stroke-width="1.49621" stroke-linecap="round"/>
<path d="M22.0242 11.2408V17.1227" stroke="black" stroke-width="1.49621" stroke-linecap="round"/>
</svg>
