<svg width="73" height="14" viewBox="0 0 73 14" fill="none" xmlns="http://www.w3.org/2000/svg">
<path d="M9 9.34773C7.88291 9.23495 7.27681 11.9755 6.96494 12.5242C6.75431 13.0617 6.30366 13.2963 5.9354 12.3961L4.8338 9.96273C4.68864 9.59887 4.47492 9.34295 4.09857 9.34295H1.91233C0.812278 9.34295 0.862345 8.65648 1.25584 8.2698L3.01197 6.25767C3.23487 6.01348 3.60196 5.73319 3.40849 4.98258L2.70246 2.09587C2.31563 0.819891 2.65246 0.786867 3.50754 1.3433L5.82597 2.80979C6.48191 3.22468 6.58932 3.18646 7.1941 2.80377" stroke="#569CCD" stroke-width="1.48952" stroke-linecap="round"/>
<path d="M8.81928 9H11.1729C12.2236 9 12.159 8.26883 11.6122 7.72826L9.90604 6.04155C9.67352 5.80741 9.29055 5.53864 9.49239 4.81889L10.2289 2.05084C10.6325 0.827287 10.281 0.795625 9.38907 1.3292L7 2.73541" stroke="#569CCD" stroke-width="1.48952" stroke-linecap="round"/>
<path d="M24 9.34773C22.8829 9.23495 22.2768 11.9755 21.9649 12.5242C21.7543 13.0617 21.3037 13.2963 20.9354 12.3961L19.8338 9.96273C19.6886 9.59887 19.4749 9.34295 19.0986 9.34295H16.9123C15.8123 9.34295 15.8623 8.65648 16.2558 8.2698L18.012 6.25767C18.2349 6.01348 18.602 5.73319 18.4085 4.98258L17.7025 2.09587C17.3156 0.819891 17.6525 0.786867 18.5075 1.3433L20.826 2.80979C21.4819 3.22468 21.5893 3.18646 22.1941 2.80377" stroke="#569CCD" stroke-width="1.48952" stroke-linecap="round"/>
<path d="M23.8193 9H26.1729C27.2236 9 27.159 8.26883 26.6122 7.72826L24.906 6.04155C24.6735 5.80741 24.2906 5.53864 24.4924 4.81889L25.2289 2.05084C25.6325 0.827287 25.281 0.795625 24.3891 1.3292L22 2.73541" stroke="#569CCD" stroke-width="1.48952" stroke-linecap="round"/>
<path d="M39 9.34773C37.8829 9.23495 37.2768 11.9755 36.9649 12.5242C36.7543 13.0617 36.3037 13.2963 35.9354 12.3961L34.8338 9.96273C34.6886 9.59887 34.4749 9.34295 34.0986 9.34295H31.9123C30.8123 9.34295 30.8623 8.65648 31.2558 8.2698L33.012 6.25767C33.2349 6.01348 33.602 5.73319 33.4085 4.98258L32.7025 2.09587C32.3156 0.819891 32.6525 0.786867 33.5075 1.3433L35.826 2.80979C36.4819 3.22468 36.5893 3.18646 37.1941 2.80377" stroke="#569CCD" stroke-width="1.48952" stroke-linecap="round"/>
<path d="M38.8193 9H41.1729C42.2236 9 42.159 8.26883 41.6122 7.72826L39.906 6.04155C39.6735 5.80741 39.2906 5.53864 39.4924 4.81889L40.2289 2.05084C40.6325 0.827287 40.281 0.795625 39.3891 1.3292L37 2.73541" stroke="#569CCD" stroke-width="1.48952" stroke-linecap="round"/>
<path d="M54 9.34773C52.8829 9.23495 52.2768 11.9755 51.9649 12.5242C51.7543 13.0617 51.3037 13.2963 50.9354 12.3961L49.8338 9.96273C49.6886 9.59887 49.4749 9.34295 49.0986 9.34295H46.9123C45.8123 9.34295 45.8623 8.65648 46.2558 8.2698L48.012 6.25767C48.2349 6.01348 48.602 5.73319 48.4085 4.98258L47.7025 2.09587C47.3156 0.819891 47.6525 0.786867 48.5075 1.3433L50.826 2.80979C51.4819 3.22468 51.5893 3.18646 52.1941 2.80377" stroke="#569CCD" stroke-width="1.48952" stroke-linecap="round"/>
<path d="M53.8193 9H56.1729C57.2236 9 57.159 8.26883 56.6122 7.72826L54.906 6.04155C54.6735 5.80741 54.2906 5.53864 54.4924 4.81889L55.2289 2.05084C55.6325 0.827287 55.281 0.795625 54.3891 1.3292L52 2.73541" stroke="#569CCD" stroke-width="1.48952" stroke-linecap="round"/>
<path d="M69 9.34773C67.8829 9.23495 67.2768 11.9755 66.9649 12.5242C66.7543 13.0617 66.3037 13.2963 65.9354 12.3961L64.8338 9.96273C64.6886 9.59887 64.4749 9.34295 64.0986 9.34295H61.9123C60.8123 9.34295 60.8623 8.65648 61.2558 8.2698L63.012 6.25767C63.2349 6.01348 63.602 5.73319 63.4085 4.98258L62.7025 2.09587C62.3156 0.819891 62.6525 0.786867 63.5075 1.3433L65.826 2.80979C66.4819 3.22468 66.5893 3.18646 67.1941 2.80377" stroke="#569CCD" stroke-width="1.48952" stroke-linecap="round"/>
<path d="M68.8193 9H71.1729C72.2236 9 72.159 8.26883 71.6122 7.72826L69.906 6.04155C69.6735 5.80741 69.2906 5.53864 69.4924 4.81889L70.2289 2.05084C70.6325 0.827287 70.281 0.795625 69.3891 1.3292L67 2.73541" stroke="#569CCD" stroke-width="1.48952" stroke-linecap="round"/>
</svg>
