<svg width="26" height="43" viewBox="0 0 26 43" fill="none" xmlns="http://www.w3.org/2000/svg">
<path d="M3.93613 42.1903C2.93581 42.0675 2.05621 41.5639 1.45219 40.7641C0.926923 40.0709 0.670476 39.1952 0.731497 38.3123C0.789204 37.4179 1.17431 36.6004 1.81898 35.9768C2.14304 35.6627 2.38052 35.4929 2.76792 35.3058C3.33442 35.0255 3.9344 34.9101 4.60835 34.9497C6.19537 35.0404 7.56485 36.2112 7.91382 37.7785C8.09275 38.5863 7.99629 39.4156 7.63511 40.1679C6.97214 41.5496 5.45767 42.3782 3.93464 42.1914L3.93613 42.1903ZM7.62694 33.1485C7.10167 33.0743 6.57863 32.8147 6.21045 32.433C5.84021 32.0629 5.64972 31.6607 5.5483 31.141C5.5483 31.0668 5.4906 30.8846 5.4906 30.7296C5.49133 30.4593 5.4906 30.4164 5.7322 29.2609C6.46115 25.6373 7.47903 20.0733 8.71279 12.9929C9.12014 10.6459 9.1284 10.6104 9.25621 10.0573C10.1307 6.21003 11.9615 3.35325 14.5038 1.86189C14.799 1.68879 15.3732 1.41512 15.6956 1.29643C16.2208 1.10355 16.7668 0.965081 17.3401 0.886771C17.7317 0.837348 18.6608 0.837343 19.0348 0.886035C19.6631 0.976701 20.2205 1.1226 20.7522 1.34268C21.2436 1.54627 21.9139 1.94029 22.3038 2.25203C23.6666 3.34774 24.5536 4.88386 24.8667 6.69068C25.0168 7.56688 25.0383 8.52618 24.9409 9.48803C24.8164 10.4985 24.4891 11.6445 24.0221 12.7234C23.5842 13.7417 23.1265 14.5558 22.1856 15.9728C18.1673 22.0226 13.8742 27.7195 10.2507 31.814C9.59024 32.5608 9.41345 32.7174 9.01896 32.9151C8.60749 33.122 8.09417 33.2077 7.63363 33.1467L7.62694 33.1485ZM13.1257 20.4462C14.0988 19.1292 15.2007 17.5875 16.1687 16.188C17.0523 14.912 18.3748 12.9412 18.7168 12.3945C19.4787 11.1695 19.9449 10.0179 20.1129 8.93196C20.1706 8.55444 20.1706 7.87812 20.1129 7.5776C19.9999 6.96516 19.8177 6.5747 19.4565 6.21333C19.2776 6.03199 19.2026 5.97924 19.0492 5.89764C18.5973 5.65942 18.0509 5.62974 17.4967 5.81521C17.251 5.89763 16.8791 6.09792 16.6323 6.28421C15.3871 7.21672 14.4299 9.06212 13.9327 11.4873C13.875 11.6522 13.7167 12.6709 13.5328 13.7509C13.0413 16.5508 12.274 20.9003 12.1392 21.6143C12.1392 21.672 12.1392 21.7404 12.1392 21.7569C12.1392 21.7981 12.4724 21.3514 13.1405 20.4484L13.1257 20.4462Z" fill="#569CCD" stroke="#EA5254" stroke-width="0.0282747"/>
</svg>
